<svg xmlns="http://www.w3.org/2000/svg" width="841" height="320"  viewBox="0 0 841 320"><defs></defs><g id="Layer_1"><path fill="#a3d9c8" class="cls-1" d="M93.8 164.3c0-5.2-1.5-6.7-6.6-6.7H57.1c-5.1 0-6.6 1.5-6.6 6.7v100.1c0 10.7-2.9 13.7-13.6 13.7H13.6C3 278.1 0 275.1 0 264.4V13.7C0 3 2.9 0 13.6 0h23.5c10.6 0 13.5 3 13.5 13.7V99c0 4.8 1.5 6.7 6.6 6.7h30.1c5.1 0 6.6-1.8 6.6-6.7V13.7C93.8 3 96.8 0 107.4 0h23.5c10.6 0 13.5 3 13.5 13.7v250.7c0 10.7-2.9 13.7-13.6 13.7h-23.5c-10.6 0-13.6-3-13.6-13.7V164.3ZM804.7 51.9c-5.1 0-6.6 1.5-6.6 6.7v205.9c0 10.7-2.9 13.7-13.6 13.7H761c-10.6 0-13.6-3-13.6-13.7v-206c0-5.2-1.5-6.7-6.6-6.7H718c-10.6 0-13.6-3-13.6-13.7V13.7C704.6 3 707.6 0 718.2 0h109.2C838 0 841 3 841 13.7v24.5c0 10.7-2.9 13.7-13.6 13.7h-22.7ZM570.5 1.9c-34.4 0-67.6 12.9-93 36.3-25.5 23.4-41.3 55.6-44.5 90.3l-.6-.8-.7.9c-2-24-10.1-47-23.6-66.9-13.4-19.9-31.7-35.9-53.1-46.5C333.6 4.7 309.8-.1 286.1 1.3c-23.8 1.4-46.7 9.1-66.7 22.1-62.3 40.8-81.5 125.3-42.9 189.5 18.5 30.9 48.2 53.3 82.8 62.4 34.5 9.2 71.2 4.4 102.4-13.2 1.8-1 3.8-1.3 5.7-1 2 .3 3.8 1.2 5.2 2.7l52.6 53.5c.9.9 1.9 1.6 3 2s2.3.7 3.5.7 2.4-.2 3.5-.7c1.1-.5 2.1-1.2 3-2l52.9-53.2c1.4-1.4 3.3-2.3 5.2-2.6 2-.3 4 .1 5.7 1.1 18.3 10.6 38.8 16.8 59.9 18.1 21.1 1.3 42.2-2.3 61.7-10.6 19.5-8.2 36.8-20.9 50.7-37 13.9-16.1 23.9-35.2 29.3-55.9 5.4-20.7 6.1-42.3 1.9-63.2-4.2-20.9-13-40.6-25.9-57.6-12.9-16.9-29.4-30.7-48.4-40.1-18.9-9.4-39.8-14.4-60.9-14.4Z"/></g></svg>