<svg xmlns="http://www.w3.org/2000/svg" width="184.97" height="184.97" viewBox="0 0 184.97 184.97" xml:space="preserve"><path d="m157.39 157.7-.12.12a93.985 93.985 0 0 1-30.78 20.31c-11.49 4.66-23.77 6.99-36.12 6.83a91.79 91.79 0 0 1-35.77-7.72 91 91 0 0 1-29.79-21.06 91.156 91.156 0 0 1-19.13-31.09A91.927 91.927 0 0 1 .24 88.87a93.423 93.423 0 0 1 9.09-35.65 93.862 93.862 0 0 1 22.2-29.46 9.33 9.33 0 0 1 4.63-2.28c1.72-.31 3.49-.13 5.1.52a9.102 9.102 0 0 1 5.69 7.99c.9 11.54 6.13 22.26 14.64 30.02 8.5 7.76 19.67 11.99 31.25 11.83 11.58-.15 22.73-4.68 31.22-12.66 8.48-7.99 13.68-18.85 14.54-30.41.17-1.69.81-3.31 1.83-4.68a9.415 9.415 0 0 1 3.99-3.07c1.58-.64 3.31-.83 4.98-.56 1.68.27 3.24 1.01 4.52 2.11 1.61 1.4 3.16 2.86 4.67 4.37a90.989 90.989 0 0 1 19.77 29.95 91.947 91.947 0 0 1 6.71 35.36 93.054 93.054 0 0 1-7.36 35.4 94.078 94.078 0 0 1-20.32 30.05z"/></svg>